<svg width="41" height="30" viewBox="0 0 41 30" fill="none" xmlns="http://www.w3.org/2000/svg">
  <path d="M9.07897 16.2499H27.6569L19.5405 22.3499C18.8919 22.8374 18.8919 23.6374 19.5405 24.1249C20.1892 24.6124 21.237 24.6124 21.8856 24.1249L32.8461 15.8874C33.4948 15.3999 33.4948 14.6124 32.8461 14.1249L21.9023 5.87488C21.5915 5.64082 21.1697 5.50928 20.7297 5.50928C20.2898 5.50928 19.8679 5.64082 19.5572 5.87488C18.9085 6.36238 18.9085 7.14988 19.5572 7.63738L27.6569 13.7499H9.07897C8.16421 13.7499 7.41577 14.3124 7.41577 14.9999C7.41577 15.6874 8.16421 16.2499 9.07897 16.2499Z" fill="#4DA0FD"/>
</svg>
